<svg width="896" height="1024" xmlns="http://www.w3.org/2000/svg">

 <g>
  <title>background</title>
  <rect fill="none" id="canvas_background" height="402" width="582" y="-1" x="-1"/>
 </g>
 <g>
  <title>Layer 1</title>
  <path fill="#ffffff" id="svg_1" d="m448,384c35.375,0 64,-28.594 64,-64c0,-35.312 -28.625,-64 -64,-64c-35.406,0 -64,28.688 -64,64c0,35.406 28.594,64 64,64zm0,-320c-247.438,0 -448,200.562 -448,448c0,247.438 200.562,448 448,448c247.438,0 448,-200.562 448,-448c0,-247.438 -200.562,-448 -448,-448zm0,768c-176.781,0 -320,-143.25 -320,-320c0,-176.781 143.219,-320 320,-320c176.75,0 320,143.219 320,320c0,176.75 -143.25,320 -320,320zm64,-320c0,-66 -64,-64 -64,-64s0,0 -64,0s-64,64 -64,64l64,0c0,0 0,128 0,192s64,64 64,64s0,0 64,0s64,-64 64,-64l-64,0c0,0 0,-126 0,-192z"/>
 </g>
</svg>