<svg width="48" height="48" xmlns="http://www.w3.org/2000/svg">

 <g>
  <title>background</title>
  <rect fill="none" id="canvas_background" height="402" width="582" y="-1" x="-1"/>
 </g>
 <g>
  <title>Layer 1</title>
  <path fill="#525252" stroke="#525251" id="svg_3" d="m40.89882,48l-34,0l0,-41l34,0l0,41zm-32,-2l30,0l0,-37l-30,0l0,37z"/>
  <path fill="#525252" stroke="#525252" id="svg_5" d="m35,9l-22,0l0,-8l22,0l0,8zm-20,-2l18,0l0,-4l-18,0l0,4z"/>
  <path fill="#525252" stroke="#525252" id="svg_7" d="m16,41c-0.553,0 -1,-0.447 -1,-1l0,-25c0,-0.553 0.447,-1 1,-1s1,0.447 1,1l0,25c0,0.553 -0.447,1 -1,1z"/>
  <path fill="#525252" stroke="#525252" id="svg_9" d="m24,41c-0.553,0 -1,-0.447 -1,-1l0,-25c0,-0.553 0.447,-1 1,-1s1,0.447 1,1l0,25c0,0.553 -0.447,1 -1,1z"/>
  <path fill="#525252" stroke="#525252" id="svg_11" d="m32,41c-0.553,0 -1,-0.447 -1,-1l0,-25c0,-0.553 0.447,-1 1,-1s1,0.447 1,1l0,25c0,0.553 -0.447,1 -1,1z"/>
  <rect fill="#525252" stroke="#525252" id="svg_13" y="7" width="48" height="2"/>
 </g>
</svg>